<mxfile host="app.diagrams.net" agent="Mozilla/5.0 (Windows NT 10.0; Win64; x64) AppleWebKit/537.36 (KHTML, like Gecko) Chrome/127.0.0.0 Safari/537.36 Edg/127.0.0.0" version="24.7.7">
  <diagram id="prtHgNgQTEPvFCAcTncT" name="Page-1">
    <mxGraphModel dx="1826" dy="791" grid="0" gridSize="10" guides="1" tooltips="1" connect="1" arrows="1" fold="1" page="0" pageScale="1" pageWidth="827" pageHeight="1169" math="0" shadow="0">
      <root>
        <mxCell id="0" />
        <mxCell id="1" parent="0" />
        <mxCell id="rXpLtWVsN_6GIJB_M9iF-31" style="edgeStyle=orthogonalEdgeStyle;rounded=0;orthogonalLoop=1;jettySize=auto;html=1;entryX=0;entryY=0.5;entryDx=0;entryDy=0;" parent="1" source="rXpLtWVsN_6GIJB_M9iF-1" target="rXpLtWVsN_6GIJB_M9iF-2" edge="1">
          <mxGeometry relative="1" as="geometry" />
        </mxCell>
        <mxCell id="rXpLtWVsN_6GIJB_M9iF-1" value="Driver moteur" style="rounded=0;whiteSpace=wrap;html=1;" parent="1" vertex="1">
          <mxGeometry x="480" y="325" width="120" height="60" as="geometry" />
        </mxCell>
        <mxCell id="rXpLtWVsN_6GIJB_M9iF-49" style="edgeStyle=orthogonalEdgeStyle;rounded=0;orthogonalLoop=1;jettySize=auto;html=1;strokeColor=#000000;" parent="1" source="rXpLtWVsN_6GIJB_M9iF-2" edge="1">
          <mxGeometry relative="1" as="geometry">
            <mxPoint x="860" y="355" as="targetPoint" />
          </mxGeometry>
        </mxCell>
        <mxCell id="rXpLtWVsN_6GIJB_M9iF-2" value="Wiper moteur" style="rounded=0;whiteSpace=wrap;html=1;" parent="1" vertex="1">
          <mxGeometry x="650" y="325" width="120" height="60" as="geometry" />
        </mxCell>
        <mxCell id="rXpLtWVsN_6GIJB_M9iF-54" style="edgeStyle=orthogonalEdgeStyle;rounded=0;orthogonalLoop=1;jettySize=auto;html=1;strokeColor=#0000FF;" parent="1" source="rXpLtWVsN_6GIJB_M9iF-5" edge="1">
          <mxGeometry relative="1" as="geometry">
            <mxPoint x="254" y="193" as="targetPoint" />
          </mxGeometry>
        </mxCell>
        <mxCell id="rXpLtWVsN_6GIJB_M9iF-5" value="Alimentation" style="rounded=0;whiteSpace=wrap;html=1;" parent="1" vertex="1">
          <mxGeometry x="64" y="163" width="120" height="60" as="geometry" />
        </mxCell>
        <mxCell id="rXpLtWVsN_6GIJB_M9iF-26" style="edgeStyle=orthogonalEdgeStyle;rounded=0;orthogonalLoop=1;jettySize=auto;html=1;entryX=0;entryY=0.5;entryDx=0;entryDy=0;" parent="1" source="rXpLtWVsN_6GIJB_M9iF-10" target="rXpLtWVsN_6GIJB_M9iF-1" edge="1">
          <mxGeometry relative="1" as="geometry" />
        </mxCell>
        <mxCell id="rXpLtWVsN_6GIJB_M9iF-10" value="Microcontrôleur" style="rounded=0;whiteSpace=wrap;html=1;" parent="1" vertex="1">
          <mxGeometry x="320" y="325" width="120" height="60" as="geometry" />
        </mxCell>
        <mxCell id="rXpLtWVsN_6GIJB_M9iF-11" value="4x&lt;div&gt;Capteur de position&lt;/div&gt;" style="rounded=0;whiteSpace=wrap;html=1;" parent="1" vertex="1">
          <mxGeometry x="530" y="610" width="120" height="60" as="geometry" />
        </mxCell>
        <mxCell id="rXpLtWVsN_6GIJB_M9iF-12" value="Accéléromètre /&amp;nbsp;&lt;div&gt;Gyroscope&lt;/div&gt;" style="rounded=0;whiteSpace=wrap;html=1;" parent="1" vertex="1">
          <mxGeometry x="530" y="480" width="120" height="60" as="geometry" />
        </mxCell>
        <mxCell id="rXpLtWVsN_6GIJB_M9iF-15" value="" style="endArrow=none;dashed=1;html=1;" parent="1" edge="1">
          <mxGeometry width="50" height="50" relative="1" as="geometry">
            <mxPoint x="80" y="300" as="sourcePoint" />
            <mxPoint x="80" y="300" as="targetPoint" />
            <Array as="points">
              <mxPoint x="240" y="300" />
              <mxPoint x="240" y="530" />
              <mxPoint x="40" y="530" />
              <mxPoint x="40" y="300" />
            </Array>
          </mxGeometry>
        </mxCell>
        <mxCell id="rXpLtWVsN_6GIJB_M9iF-16" value="Application Simtools" style="rounded=1;whiteSpace=wrap;html=1;" parent="1" vertex="1">
          <mxGeometry x="160" y="335" width="65" height="40" as="geometry" />
        </mxCell>
        <mxCell id="rXpLtWVsN_6GIJB_M9iF-24" style="edgeStyle=orthogonalEdgeStyle;rounded=0;orthogonalLoop=1;jettySize=auto;html=1;entryX=0;entryY=0.5;entryDx=0;entryDy=0;" parent="1" source="rXpLtWVsN_6GIJB_M9iF-17" target="rXpLtWVsN_6GIJB_M9iF-16" edge="1">
          <mxGeometry relative="1" as="geometry" />
        </mxCell>
        <mxCell id="rXpLtWVsN_6GIJB_M9iF-17" value="Jeu de course" style="rounded=1;whiteSpace=wrap;html=1;" parent="1" vertex="1">
          <mxGeometry x="50" y="335" width="70" height="40" as="geometry" />
        </mxCell>
        <mxCell id="rXpLtWVsN_6GIJB_M9iF-18" value="Application C#" style="rounded=1;whiteSpace=wrap;html=1;" parent="1" vertex="1">
          <mxGeometry x="104" y="455" width="72" height="50" as="geometry" />
        </mxCell>
        <mxCell id="rXpLtWVsN_6GIJB_M9iF-20" value="&lt;font style=&quot;font-size: 18px&quot;&gt;&lt;b&gt;PC&lt;/b&gt;&lt;/font&gt;" style="text;html=1;strokeColor=none;fillColor=none;align=center;verticalAlign=middle;whiteSpace=wrap;rounded=0;" parent="1" vertex="1">
          <mxGeometry x="80" y="397" width="40" height="20" as="geometry" />
        </mxCell>
        <mxCell id="rXpLtWVsN_6GIJB_M9iF-38" value="&lt;font style=&quot;font-size: 18px&quot;&gt;&lt;b&gt;Simulateur dynamique&lt;/b&gt;&lt;/font&gt;" style="text;html=1;strokeColor=none;fillColor=none;align=center;verticalAlign=middle;whiteSpace=wrap;rounded=0;" parent="1" vertex="1">
          <mxGeometry x="820" y="315" width="40" height="20" as="geometry" />
        </mxCell>
        <mxCell id="rXpLtWVsN_6GIJB_M9iF-39" value="" style="endArrow=classic;html=1;entryX=1;entryY=0.5;entryDx=0;entryDy=0;" parent="1" target="rXpLtWVsN_6GIJB_M9iF-11" edge="1">
          <mxGeometry width="50" height="50" relative="1" as="geometry">
            <mxPoint x="800" y="355" as="sourcePoint" />
            <mxPoint x="710" y="750" as="targetPoint" />
            <Array as="points">
              <mxPoint x="800" y="640" />
              <mxPoint x="710" y="640" />
            </Array>
          </mxGeometry>
        </mxCell>
        <mxCell id="rXpLtWVsN_6GIJB_M9iF-41" value="" style="endArrow=classic;html=1;entryX=1;entryY=0.5;entryDx=0;entryDy=0;" parent="1" target="rXpLtWVsN_6GIJB_M9iF-12" edge="1">
          <mxGeometry width="50" height="50" relative="1" as="geometry">
            <mxPoint x="800" y="510" as="sourcePoint" />
            <mxPoint x="790" y="500" as="targetPoint" />
          </mxGeometry>
        </mxCell>
        <mxCell id="rXpLtWVsN_6GIJB_M9iF-42" value="" style="endArrow=classic;html=1;entryX=0.5;entryY=1;entryDx=0;entryDy=0;" parent="1" target="rXpLtWVsN_6GIJB_M9iF-10" edge="1">
          <mxGeometry width="50" height="50" relative="1" as="geometry">
            <mxPoint x="470" y="580" as="sourcePoint" />
            <mxPoint x="280" y="360" as="targetPoint" />
            <Array as="points">
              <mxPoint x="380" y="580" />
            </Array>
          </mxGeometry>
        </mxCell>
        <mxCell id="rXpLtWVsN_6GIJB_M9iF-43" value="" style="endArrow=none;html=1;entryX=0;entryY=0.5;entryDx=0;entryDy=0;" parent="1" target="rXpLtWVsN_6GIJB_M9iF-12" edge="1">
          <mxGeometry width="50" height="50" relative="1" as="geometry">
            <mxPoint x="470" y="550" as="sourcePoint" />
            <mxPoint x="500" y="480" as="targetPoint" />
            <Array as="points">
              <mxPoint x="470" y="510" />
            </Array>
          </mxGeometry>
        </mxCell>
        <mxCell id="rXpLtWVsN_6GIJB_M9iF-44" value="" style="endArrow=none;html=1;entryX=0;entryY=0.5;entryDx=0;entryDy=0;" parent="1" target="rXpLtWVsN_6GIJB_M9iF-11" edge="1">
          <mxGeometry width="50" height="50" relative="1" as="geometry">
            <mxPoint x="470" y="550" as="sourcePoint" />
            <mxPoint x="490" y="590" as="targetPoint" />
            <Array as="points">
              <mxPoint x="470" y="640" />
            </Array>
          </mxGeometry>
        </mxCell>
        <mxCell id="rXpLtWVsN_6GIJB_M9iF-53" value="" style="endArrow=classic;html=1;strokeColor=#0000FF;" parent="1" edge="1">
          <mxGeometry width="50" height="50" relative="1" as="geometry">
            <mxPoint x="523" y="278" as="sourcePoint" />
            <mxPoint x="523" y="325" as="targetPoint" />
          </mxGeometry>
        </mxCell>
        <mxCell id="rXpLtWVsN_6GIJB_M9iF-55" value="" style="endArrow=classic;html=1;strokeColor=#000000;" parent="1" edge="1">
          <mxGeometry width="50" height="50" relative="1" as="geometry">
            <mxPoint x="200" y="300" as="sourcePoint" />
            <mxPoint x="200" y="240" as="targetPoint" />
          </mxGeometry>
        </mxCell>
        <mxCell id="rXpLtWVsN_6GIJB_M9iF-56" value="&lt;font style=&quot;font-size: 14px&quot;&gt;230V&lt;/font&gt;" style="text;html=1;strokeColor=none;fillColor=none;align=center;verticalAlign=middle;whiteSpace=wrap;rounded=0;" parent="1" vertex="1">
          <mxGeometry x="200" y="270" width="40" height="20" as="geometry" />
        </mxCell>
        <mxCell id="rXpLtWVsN_6GIJB_M9iF-58" value="&lt;font style=&quot;font-size: 14px&quot; color=&quot;#0000ff&quot;&gt;24V&lt;/font&gt;" style="text;html=1;strokeColor=none;fillColor=none;align=center;verticalAlign=middle;whiteSpace=wrap;rounded=0;" parent="1" vertex="1">
          <mxGeometry x="195" y="173" width="40" height="20" as="geometry" />
        </mxCell>
        <mxCell id="rXpLtWVsN_6GIJB_M9iF-59" value="&lt;font style=&quot;font-size: 14px&quot; color=&quot;#0000ff&quot;&gt;24V&lt;/font&gt;" style="text;html=1;strokeColor=none;fillColor=none;align=center;verticalAlign=middle;whiteSpace=wrap;rounded=0;" parent="1" vertex="1">
          <mxGeometry x="522" y="290" width="40" height="20" as="geometry" />
        </mxCell>
        <mxCell id="rXpLtWVsN_6GIJB_M9iF-69" value="&lt;b&gt;Consigne&lt;/b&gt;" style="text;html=1;strokeColor=none;fillColor=none;align=center;verticalAlign=middle;whiteSpace=wrap;rounded=0;" parent="1" vertex="1">
          <mxGeometry x="260" y="325" width="40" height="20" as="geometry" />
        </mxCell>
        <mxCell id="rXpLtWVsN_6GIJB_M9iF-73" value="&lt;b&gt;Correction&lt;/b&gt;" style="text;html=1;strokeColor=none;fillColor=none;align=center;verticalAlign=middle;whiteSpace=wrap;rounded=0;" parent="1" vertex="1">
          <mxGeometry x="394" y="460" width="40" height="20" as="geometry" />
        </mxCell>
        <mxCell id="rXpLtWVsN_6GIJB_M9iF-74" value="" style="endArrow=classic;html=1;strokeColor=#000000;entryX=0;entryY=0.5;entryDx=0;entryDy=0;" parent="1" target="rXpLtWVsN_6GIJB_M9iF-5" edge="1">
          <mxGeometry width="50" height="50" relative="1" as="geometry">
            <mxPoint x="-11" y="193" as="sourcePoint" />
            <mxPoint x="-31" y="183" as="targetPoint" />
          </mxGeometry>
        </mxCell>
        <mxCell id="rXpLtWVsN_6GIJB_M9iF-75" value="&lt;font style=&quot;font-size: 14px&quot;&gt;230V&lt;/font&gt;" style="text;html=1;strokeColor=none;fillColor=none;align=center;verticalAlign=middle;whiteSpace=wrap;rounded=0;" parent="1" vertex="1">
          <mxGeometry x="-11" y="173" width="40" height="20" as="geometry" />
        </mxCell>
        <mxCell id="8I9ah2Sm8KUundeO7SXA-4" value="" style="endArrow=classic;startArrow=classic;html=1;exitX=1;exitY=0.5;exitDx=0;exitDy=0;entryX=0;entryY=0.5;entryDx=0;entryDy=0;" parent="1" source="rXpLtWVsN_6GIJB_M9iF-16" target="rXpLtWVsN_6GIJB_M9iF-10" edge="1">
          <mxGeometry width="50" height="50" relative="1" as="geometry">
            <mxPoint x="237.5" y="493" as="sourcePoint" />
            <mxPoint x="312" y="351" as="targetPoint" />
            <Array as="points">
              <mxPoint x="288" y="355" />
            </Array>
          </mxGeometry>
        </mxCell>
        <mxCell id="8I9ah2Sm8KUundeO7SXA-5" value="USB" style="edgeLabel;html=1;align=center;verticalAlign=middle;resizable=0;points=[];" parent="8I9ah2Sm8KUundeO7SXA-4" vertex="1" connectable="0">
          <mxGeometry x="-0.1673" y="30" relative="1" as="geometry">
            <mxPoint x="11" y="36" as="offset" />
          </mxGeometry>
        </mxCell>
        <mxCell id="g3Ii0WFSwjyPgJQy0aNP-5" value="" style="endArrow=none;dashed=1;html=1;dashPattern=1 3;strokeWidth=2;rounded=0;" parent="1" edge="1">
          <mxGeometry width="50" height="50" relative="1" as="geometry">
            <mxPoint x="247" y="688" as="sourcePoint" />
            <mxPoint x="247" y="259" as="targetPoint" />
          </mxGeometry>
        </mxCell>
        <mxCell id="g3Ii0WFSwjyPgJQy0aNP-6" value="" style="endArrow=none;dashed=1;html=1;dashPattern=1 3;strokeWidth=2;rounded=0;" parent="1" edge="1">
          <mxGeometry width="50" height="50" relative="1" as="geometry">
            <mxPoint x="246" y="686" as="sourcePoint" />
            <mxPoint x="754.5" y="686" as="targetPoint" />
          </mxGeometry>
        </mxCell>
        <mxCell id="g3Ii0WFSwjyPgJQy0aNP-8" value="" style="endArrow=none;dashed=1;html=1;dashPattern=1 3;strokeWidth=2;rounded=0;" parent="1" edge="1">
          <mxGeometry width="50" height="50" relative="1" as="geometry">
            <mxPoint x="246" y="263" as="sourcePoint" />
            <mxPoint x="617" y="263" as="targetPoint" />
          </mxGeometry>
        </mxCell>
        <mxCell id="g3Ii0WFSwjyPgJQy0aNP-9" value="" style="endArrow=none;dashed=1;html=1;dashPattern=1 3;strokeWidth=2;rounded=0;" parent="1" edge="1">
          <mxGeometry width="50" height="50" relative="1" as="geometry">
            <mxPoint x="615" y="440" as="sourcePoint" />
            <mxPoint x="615" y="257" as="targetPoint" />
          </mxGeometry>
        </mxCell>
        <mxCell id="g3Ii0WFSwjyPgJQy0aNP-10" value="" style="endArrow=none;dashed=1;html=1;dashPattern=1 3;strokeWidth=2;rounded=0;" parent="1" edge="1">
          <mxGeometry width="50" height="50" relative="1" as="geometry">
            <mxPoint x="751" y="688" as="sourcePoint" />
            <mxPoint x="751" y="440" as="targetPoint" />
          </mxGeometry>
        </mxCell>
        <mxCell id="g3Ii0WFSwjyPgJQy0aNP-11" value="" style="endArrow=none;dashed=1;html=1;dashPattern=1 3;strokeWidth=2;rounded=0;" parent="1" edge="1">
          <mxGeometry width="50" height="50" relative="1" as="geometry">
            <mxPoint x="615" y="447" as="sourcePoint" />
            <mxPoint x="752" y="447" as="targetPoint" />
          </mxGeometry>
        </mxCell>
        <mxCell id="g3Ii0WFSwjyPgJQy0aNP-12" value="&lt;font style=&quot;font-size: 18px&quot;&gt;&lt;b&gt;PCB&lt;/b&gt;&lt;/font&gt;" style="text;html=1;strokeColor=none;fillColor=none;align=center;verticalAlign=middle;whiteSpace=wrap;rounded=0;" parent="1" vertex="1">
          <mxGeometry x="282.5" y="635" width="40" height="20" as="geometry" />
        </mxCell>
        <mxCell id="Rbv8-sJsRKwQc9ISjwt7-1" value="" style="endArrow=classic;html=1;rounded=0;exitX=0.25;exitY=1;exitDx=0;exitDy=0;entryX=1;entryY=0.5;entryDx=0;entryDy=0;" parent="1" source="rXpLtWVsN_6GIJB_M9iF-10" target="rXpLtWVsN_6GIJB_M9iF-18" edge="1">
          <mxGeometry width="50" height="50" relative="1" as="geometry">
            <mxPoint x="438" y="510" as="sourcePoint" />
            <mxPoint x="320" y="550" as="targetPoint" />
            <Array as="points">
              <mxPoint x="350" y="480" />
            </Array>
          </mxGeometry>
        </mxCell>
        <mxCell id="Rbv8-sJsRKwQc9ISjwt7-2" style="edgeStyle=orthogonalEdgeStyle;rounded=0;orthogonalLoop=1;jettySize=auto;html=1;strokeColor=#66CC00;" parent="1" source="Rbv8-sJsRKwQc9ISjwt7-3" edge="1">
          <mxGeometry relative="1" as="geometry">
            <mxPoint x="579" y="193" as="targetPoint" />
          </mxGeometry>
        </mxCell>
        <mxCell id="Rbv8-sJsRKwQc9ISjwt7-3" value="Régulateur" style="rounded=0;whiteSpace=wrap;html=1;" parent="1" vertex="1">
          <mxGeometry x="389" y="163" width="120" height="60" as="geometry" />
        </mxCell>
        <mxCell id="Rbv8-sJsRKwQc9ISjwt7-4" value="&lt;span style=&quot;font-size: 14px;&quot;&gt;&lt;font color=&quot;#66cc00&quot;&gt;5V&lt;/font&gt;&lt;/span&gt;" style="text;html=1;strokeColor=none;fillColor=none;align=center;verticalAlign=middle;whiteSpace=wrap;rounded=0;" parent="1" vertex="1">
          <mxGeometry x="520" y="173" width="40" height="20" as="geometry" />
        </mxCell>
        <mxCell id="Rbv8-sJsRKwQc9ISjwt7-7" style="edgeStyle=orthogonalEdgeStyle;rounded=0;orthogonalLoop=1;jettySize=auto;html=1;strokeColor=#0000FF;" parent="1" edge="1">
          <mxGeometry relative="1" as="geometry">
            <mxPoint x="389" y="192.43" as="targetPoint" />
            <mxPoint x="319" y="192.43" as="sourcePoint" />
          </mxGeometry>
        </mxCell>
        <mxCell id="Rbv8-sJsRKwQc9ISjwt7-8" value="&lt;font style=&quot;font-size: 14px&quot; color=&quot;#0000ff&quot;&gt;24V&lt;/font&gt;" style="text;html=1;strokeColor=none;fillColor=none;align=center;verticalAlign=middle;whiteSpace=wrap;rounded=0;" parent="1" vertex="1">
          <mxGeometry x="330" y="172.43" width="40" height="20" as="geometry" />
        </mxCell>
        <mxCell id="Rbv8-sJsRKwQc9ISjwt7-14" style="edgeStyle=orthogonalEdgeStyle;rounded=0;orthogonalLoop=1;jettySize=auto;html=1;strokeColor=#FF3333;" parent="1" source="Rbv8-sJsRKwQc9ISjwt7-15" edge="1">
          <mxGeometry relative="1" as="geometry">
            <mxPoint x="911" y="193" as="targetPoint" />
          </mxGeometry>
        </mxCell>
        <mxCell id="Rbv8-sJsRKwQc9ISjwt7-15" value="Régulateur" style="rounded=0;whiteSpace=wrap;html=1;" parent="1" vertex="1">
          <mxGeometry x="721" y="163" width="120" height="60" as="geometry" />
        </mxCell>
        <mxCell id="Rbv8-sJsRKwQc9ISjwt7-16" value="&lt;span style=&quot;font-size: 14px;&quot;&gt;&lt;font color=&quot;#ff3333&quot;&gt;3.3V&lt;/font&gt;&lt;/span&gt;" style="text;html=1;strokeColor=none;fillColor=none;align=center;verticalAlign=middle;whiteSpace=wrap;rounded=0;" parent="1" vertex="1">
          <mxGeometry x="852" y="173" width="40" height="20" as="geometry" />
        </mxCell>
        <mxCell id="Rbv8-sJsRKwQc9ISjwt7-20" style="edgeStyle=orthogonalEdgeStyle;rounded=0;orthogonalLoop=1;jettySize=auto;html=1;strokeColor=#66CC00;" parent="1" edge="1">
          <mxGeometry relative="1" as="geometry">
            <mxPoint x="721" y="193" as="targetPoint" />
            <mxPoint x="651" y="193" as="sourcePoint" />
          </mxGeometry>
        </mxCell>
        <mxCell id="Rbv8-sJsRKwQc9ISjwt7-21" value="&lt;span style=&quot;font-size: 14px;&quot;&gt;&lt;font color=&quot;#66cc00&quot;&gt;5V&lt;/font&gt;&lt;/span&gt;" style="text;html=1;strokeColor=none;fillColor=none;align=center;verticalAlign=middle;whiteSpace=wrap;rounded=0;" parent="1" vertex="1">
          <mxGeometry x="662" y="173" width="40" height="20" as="geometry" />
        </mxCell>
        <mxCell id="Rbv8-sJsRKwQc9ISjwt7-25" value="&lt;span style=&quot;font-size: 14px;&quot;&gt;&lt;font color=&quot;#ff3333&quot;&gt;3.3V&lt;/font&gt;&lt;/span&gt;" style="text;html=1;strokeColor=none;fillColor=none;align=center;verticalAlign=middle;whiteSpace=wrap;rounded=0;" parent="1" vertex="1">
          <mxGeometry x="354" y="286" width="40" height="20" as="geometry" />
        </mxCell>
        <mxCell id="Rbv8-sJsRKwQc9ISjwt7-26" value="" style="endArrow=classic;html=1;strokeColor=#FF3333;entryX=0.5;entryY=1;entryDx=0;entryDy=0;" parent="1" edge="1">
          <mxGeometry width="50" height="50" relative="1" as="geometry">
            <mxPoint x="351.99999999999994" y="274.75" as="sourcePoint" />
            <mxPoint x="352.57" y="325.25" as="targetPoint" />
          </mxGeometry>
        </mxCell>
        <mxCell id="Rbv8-sJsRKwQc9ISjwt7-27" value="" style="endArrow=classic;html=1;strokeColor=#66CC00;entryX=0.5;entryY=1;entryDx=0;entryDy=0;" parent="1" edge="1">
          <mxGeometry width="50" height="50" relative="1" as="geometry">
            <mxPoint x="543" y="559.5" as="sourcePoint" />
            <mxPoint x="543.5699999999999" y="610" as="targetPoint" />
          </mxGeometry>
        </mxCell>
        <mxCell id="Rbv8-sJsRKwQc9ISjwt7-28" value="&lt;span style=&quot;font-size: 14px;&quot;&gt;&lt;font color=&quot;#66cc00&quot;&gt;5V&lt;/font&gt;&lt;/span&gt;" style="text;html=1;strokeColor=none;fillColor=none;align=center;verticalAlign=middle;whiteSpace=wrap;rounded=0;" parent="1" vertex="1">
          <mxGeometry x="540" y="568" width="40" height="20" as="geometry" />
        </mxCell>
        <mxCell id="Rbv8-sJsRKwQc9ISjwt7-29" value="&lt;span style=&quot;font-size: 14px;&quot;&gt;&lt;font color=&quot;#ff3333&quot;&gt;3.3V&lt;/font&gt;&lt;/span&gt;" style="text;html=1;strokeColor=none;fillColor=none;align=center;verticalAlign=middle;whiteSpace=wrap;rounded=0;" parent="1" vertex="1">
          <mxGeometry x="545" y="440.75" width="40" height="20" as="geometry" />
        </mxCell>
        <mxCell id="Rbv8-sJsRKwQc9ISjwt7-30" value="" style="endArrow=classic;html=1;strokeColor=#FF3333;entryX=0.5;entryY=1;entryDx=0;entryDy=0;" parent="1" edge="1">
          <mxGeometry width="50" height="50" relative="1" as="geometry">
            <mxPoint x="543" y="429.5" as="sourcePoint" />
            <mxPoint x="543.5699999999999" y="480" as="targetPoint" />
          </mxGeometry>
        </mxCell>
      </root>
    </mxGraphModel>
  </diagram>
</mxfile>
